<?xml version="1.0" encoding="utf-8" standalone="no"?>
<!DOCTYPE svg PUBLIC "-//W3C//DTD SVG 1.1//EN"
  "http://www.w3.org/Graphics/SVG/1.1/DTD/svg11.dtd">
<svg xmlns:xlink="http://www.w3.org/1999/xlink" width="262.5pt" height="298.5pt" viewBox="0 0 262.5 298.5" xmlns="http://www.w3.org/2000/svg" version="1.1">
 <metadata>
  <rdf:RDF xmlns:dc="http://purl.org/dc/elements/1.1/" xmlns:cc="http://creativecommons.org/ns#" xmlns:rdf="http://www.w3.org/1999/02/22-rdf-syntax-ns#">
   <cc:Work>
    <dc:type rdf:resource="http://purl.org/dc/dcmitype/StillImage"/>
    <dc:date>2026-05-08T04:23:38.954859</dc:date>
    <dc:format>image/svg+xml</dc:format>
    <dc:creator>
     <cc:Agent>
      <dc:title>Matplotlib v3.10.8, https://matplotlib.org/</dc:title>
     </cc:Agent>
    </dc:creator>
   </cc:Work>
  </rdf:RDF>
 </metadata>
 <defs>
  <style type="text/css">*{stroke-linejoin: round; stroke-linecap: butt}</style>
 </defs>
 <g id="figure_1">
  <g id="patch_1">
   <path d="M 0 298.5 
L 262.5 298.5 
L 262.5 0 
L 0 0 
z
" style="fill: #f8f8f8"/>
  </g>
  <g id="axes_1">
   <g id="patch_2">
    <path d="M 147.219944 177.628429 
C 160.838854 173.972083 172.741936 166.127813 180.307674 155.823228 
C 187.873412 145.518644 190.484097 133.595069 187.564757 122.678533 
C 184.645416 111.761997 176.4344 102.743785 164.740091 97.610056 
C 153.045781 92.476326 138.822967 91.646225 125.204056 95.302571 
C 111.585146 98.958917 99.682064 106.803187 92.116326 117.107772 
C 84.550588 127.412356 81.939903 139.335931 84.859243 150.252467 
C 87.778584 161.169003 95.9896 170.187215 107.683909 175.320944 
C 119.378219 180.454674 133.601033 181.284775 147.219944 177.628429 
z
" clip-path="url(#p201c8ecc4b)" style="fill: #56b4e9; opacity: 0.18; stroke: #56b4e9; stroke-linejoin: miter"/>
   </g>
   <g id="text_1">
    <text style="font-weight: 700; font-size: 6.5px; font-family: 'Arial'; text-anchor: middle; fill: #222222" x="131.25" y="20.454797" transform="rotate(-0 131.25 20.454797)">MCP Ligand-Binding Domain — Ala-Ile Docking</text>
   </g>
   <g id="text_2">
    <text style="font-size: 5.5px; font-family: 'Arial'; text-anchor: middle; fill: #444444" x="131.25" y="32.511328" transform="rotate(-0 131.25 32.511328)">Tier 1 worked example  |  Vina = −5.61 kcal/mol  |  CNN pose = 0.900</text>
   </g>
   <g id="patch_3">
    <path d="M 53.325427 167.94029 
Q 60.364391 127.941899 66.43448 93.449075 
" style="fill: none; opacity: 0.82; stroke: #0000ff; stroke-width: 5; stroke-linecap: round"/>
    <path d="M 63.238876 97.760469 
L 66.43448 93.449075 
L 67.966232 98.592395 
z
" style="fill: #0000ff; opacity: 0.82; stroke: #0000ff; stroke-width: 5; stroke-linecap: round"/>
   </g>
   <g id="patch_4">
    <path d="M 108.703956 128.986151 
Q 102.895953 95.982605 98.056826 68.484627 
" style="fill: none; opacity: 0.82; stroke: #0055ff; stroke-width: 5; stroke-linecap: round"/>
    <path d="M 96.525073 73.627946 
L 98.056826 68.484627 
L 101.25243 72.796021 
z
" style="fill: #0055ff; opacity: 0.82; stroke: #0055ff; stroke-width: 5; stroke-linecap: round"/>
   </g>
   <g id="patch_5">
    <path d="M 171.517473 128.986151 
Q 177.325476 95.982605 182.164603 68.484627 
" style="fill: none; opacity: 0.82; stroke: #00aaff; stroke-width: 5; stroke-linecap: round"/>
    <path d="M 178.968999 72.796021 
L 182.164603 68.484627 
L 183.696355 73.627946 
z
" style="fill: #00aaff; opacity: 0.82; stroke: #00aaff; stroke-width: 5; stroke-linecap: round"/>
   </g>
   <g id="patch_6">
    <path d="M 219.80743 167.94029 
Q 212.768466 127.941899 206.698378 93.449075 
" style="fill: none; opacity: 0.82; stroke: #00ffaa; stroke-width: 5; stroke-linecap: round"/>
    <path d="M 205.166625 98.592395 
L 206.698378 93.449075 
L 209.893982 97.760469 
z
" style="fill: #00ffaa; opacity: 0.82; stroke: #00ffaa; stroke-width: 5; stroke-linecap: round"/>
   </g>
   <g id="patch_7">
    <path d="M 57.226107 205.812975 
Q 67.453232 177.658967 75.771719 154.759205 
" style="fill: none; opacity: 0.82; stroke: #55ff00; stroke-width: 5; stroke-linecap: round"/>
    <path d="M 71.877087 158.451337 
L 75.771719 154.759205 
L 76.388646 160.09019 
z
" style="fill: #55ff00; opacity: 0.82; stroke: #55ff00; stroke-width: 5; stroke-linecap: round"/>
   </g>
   <g id="patch_8">
    <path d="M 205.273893 205.812975 
Q 195.046768 177.658967 186.728281 154.759205 
" style="fill: none; opacity: 0.82; stroke: #aaff00; stroke-width: 5; stroke-linecap: round"/>
    <path d="M 186.111354 160.09019 
L 186.728281 154.759205 
L 190.622913 158.451337 
z
" style="fill: #aaff00; opacity: 0.82; stroke: #aaff00; stroke-width: 5; stroke-linecap: round"/>
   </g>
   <g id="text_3">
    <g id="patch_9">
     <path d="M 32.01 73.947938 
C 33.136036 73.947938 34.216104 73.500559 35.012331 72.704331 
C 35.808559 71.908104 36.255938 70.828036 36.255938 69.702 
C 36.255938 68.575964 35.808559 67.495896 35.012331 66.699669 
C 34.216104 65.903441 33.136036 65.456063 32.01 65.456063 
C 30.883964 65.456063 29.803896 65.903441 29.007669 66.699669 
C 28.211441 67.495896 27.764062 68.575964 27.764062 69.702 
C 27.764062 70.828036 28.211441 71.908104 29.007669 72.704331 
C 29.803896 73.500559 30.883964 73.947938 32.01 73.947938 
z
" style="fill: #0000ff; opacity: 0.7; stroke: #ffffff; stroke-width: 0.5; stroke-linejoin: miter"/>
    </g>
    <text style="font-weight: 700; font-size: 7px; font-family: 'Arial'; text-anchor: middle; fill: #0000ff" x="32.01" y="71.516531" transform="rotate(-0 32.01 71.516531)">N</text>
   </g>
   <g id="text_4">
    <g id="patch_10">
     <path d="M 230.49 206.764688 
C 231.616036 206.764688 232.696104 206.317309 233.492331 205.521081 
C 234.288559 204.724854 234.735937 203.644786 234.735937 202.51875 
C 234.735937 201.392714 234.288559 200.312646 233.492331 199.516419 
C 232.696104 198.720191 231.616036 198.272812 230.49 198.272812 
C 229.363964 198.272812 228.283896 198.720191 227.487669 199.516419 
C 226.691441 200.312646 226.244062 201.392714 226.244062 202.51875 
C 226.244062 203.644786 226.691441 204.724854 227.487669 205.521081 
C 228.283896 206.317309 229.363964 206.764688 230.49 206.764688 
z
" style="fill: #ff0000; opacity: 0.7; stroke: #ffffff; stroke-width: 0.5; stroke-linejoin: miter"/>
    </g>
    <text style="font-weight: 700; font-size: 7px; font-family: 'Arial'; text-anchor: middle; fill: #ff0000" x="230.49" y="204.333281" transform="rotate(-0 230.49 204.333281)">C</text>
   </g>
   <g id="text_5">
    <text style="font-style: italic; font-size: 5px; font-family: 'Arial'; text-anchor: middle; fill: #56b4e9; opacity: 0.85" x="136.212" y="97.0745" transform="rotate(-0 136.212 97.0745)">Binding pocket</text>
   </g>
   <g id="text_6">
    <text style="font-weight: 700; font-size: 6px; font-family: 'Arial'; text-anchor: middle; fill: #00aa44" x="150.389143" y="169.170187" transform="rotate(-0 150.389143 169.170187)">Ala-Ile</text>
   </g>
   <g id="text_7">
    <text style="font-size: 4.8px; font-family: 'Arial'; text-anchor: middle; fill: #888888" x="92.262857" y="109.176" transform="rotate(-0 92.262857 109.176)">Arg64</text>
   </g>
   <g id="text_8">
    <text style="font-size: 4.8px; font-family: 'Arial'; text-anchor: middle; fill: #888888" x="102.895714" y="156.819" transform="rotate(-0 102.895714 156.819)">Thr67</text>
   </g>
   <g id="text_9">
    <text style="font-size: 4.8px; font-family: 'Arial'; text-anchor: middle; fill: #888888" x="117.072857" y="104.2605" transform="rotate(-0 117.072857 104.2605)">Asn71</text>
   </g>
   <g id="text_10">
    <text style="font-size: 4.8px; font-family: 'Arial'; text-anchor: middle; fill: #888888" x="168.819429" y="107.1015" transform="rotate(-0 168.819429 107.1015)">Trp130</text>
   </g>
   <g id="text_11">
    <text style="font-size: 4.8px; font-family: 'Arial'; text-anchor: middle; fill: #888888" x="187.958571" y="155.3985" transform="rotate(-0 187.958571 155.3985)">Leu133</text>
   </g>
   <g id="text_12">
    <text style="font-size: 4.8px; font-family: 'Arial'; text-anchor: middle; fill: #888888" x="170.237143" y="166.05225" transform="rotate(-0 170.237143 166.05225)">Ser137</text>
   </g>
   <g id="text_13">
    <text style="font-weight: 700; font-size: 5.5px; font-family: 'Arial'; text-anchor: middle; fill: #0000ff" x="14.288571" y="36.655359" transform="rotate(-0 14.288571 36.655359)">N</text>
   </g>
   <g id="text_14">
    <text style="font-weight: 700; font-size: 5.5px; font-family: 'Arial'; text-anchor: middle; fill: #ff0000" x="141.882857" y="36.655359" transform="rotate(-0 141.882857 36.655359)">C</text>
   </g>
   <g id="text_15">
    <text style="font-size: 5px; font-family: 'Arial'; text-anchor: middle; fill: #444444" x="78.085714" y="36.688406" transform="rotate(-0 78.085714 36.688406)">Receptor (rainbow N→C)</text>
   </g>
   <g id="text_16">
    <text style="font-style: italic; font-size: 4.5px; font-family: 'Arial'; fill: #999999" transform="translate(232.87502 189.404016)">Schematic</text>
    <text style="font-style: italic; font-size: 4.5px; font-family: 'Arial'; fill: #999999" transform="translate(228.959317 194.229422)">(PyMOL pml</text>
    <text style="font-style: italic; font-size: 4.5px; font-family: 'Arial'; fill: #999999" transform="translate(234.622286 199.107563)">available)</text>
   </g>
   <g id="text_17">
    <text style="font-weight: 700; font-size: 8px; font-family: 'Arial'; text-anchor: start" x="9.326571" y="14.34675" transform="rotate(-0 9.326571 14.34675)">e</text>
   </g>
   <g id="line2d_1">
    <path d="M 92.262857 117.28875 
L 124.198524 137.60363 
" clip-path="url(#p201c8ecc4b)" style="fill: none; stroke-dasharray: 3.7,1.6; stroke-dashoffset: 0; stroke: #888888; stroke-opacity: 0.55"/>
   </g>
   <g id="line2d_2">
    <path d="M 102.895714 164.8755 
L 134.465638 138.806516 
" clip-path="url(#p201c8ecc4b)" style="fill: none; stroke-dasharray: 3.7,1.6; stroke-dashoffset: 0; stroke: #888888; stroke-opacity: 0.55"/>
   </g>
   <g id="line2d_3">
    <path d="M 117.072857 112.317 
L 149.765051 142.747749 
" clip-path="url(#p201c8ecc4b)" style="fill: none; stroke-dasharray: 3.7,1.6; stroke-dashoffset: 0; stroke: #888888; stroke-opacity: 0.55"/>
   </g>
   <g id="line2d_4">
    <path d="M 168.819429 115.158 
L 136.24377 152.68652 
" clip-path="url(#p201c8ecc4b)" style="fill: none; stroke-dasharray: 3.7,1.6; stroke-dashoffset: 0; stroke: #888888; stroke-opacity: 0.55"/>
   </g>
   <g id="line2d_5">
    <path d="M 187.958571 163.455 
L 129.646253 143.570504 
" clip-path="url(#p201c8ecc4b)" style="fill: none; stroke-dasharray: 3.7,1.6; stroke-dashoffset: 0; stroke: #888888; stroke-opacity: 0.55"/>
   </g>
   <g id="line2d_6">
    <path d="M 170.237143 174.10875 
L 141.293939 137.09608 
" clip-path="url(#p201c8ecc4b)" style="fill: none; stroke-dasharray: 3.7,1.6; stroke-dashoffset: 0; stroke: #888888; stroke-opacity: 0.55"/>
   </g>
   <g id="patch_11">
    <path d="M 14.288571 46.26375 
L 28.465714 46.26375 
L 28.465714 40.58175 
L 14.288571 40.58175 
z
" clip-path="url(#p201c8ecc4b)" style="fill: #0000ff"/>
   </g>
   <g id="patch_12">
    <path d="M 28.465714 46.26375 
L 42.642857 46.26375 
L 42.642857 40.58175 
L 28.465714 40.58175 
z
" clip-path="url(#p201c8ecc4b)" style="fill: #0055ff"/>
   </g>
   <g id="patch_13">
    <path d="M 42.642857 46.26375 
L 56.82 46.26375 
L 56.82 40.58175 
L 42.642857 40.58175 
z
" clip-path="url(#p201c8ecc4b)" style="fill: #00aaff"/>
   </g>
   <g id="patch_14">
    <path d="M 56.82 46.26375 
L 70.997143 46.26375 
L 70.997143 40.58175 
L 56.82 40.58175 
z
" clip-path="url(#p201c8ecc4b)" style="fill: #00ffaa"/>
   </g>
   <g id="patch_15">
    <path d="M 70.997143 46.26375 
L 85.174286 46.26375 
L 85.174286 40.58175 
L 70.997143 40.58175 
z
" clip-path="url(#p201c8ecc4b)" style="fill: #55ff00"/>
   </g>
   <g id="patch_16">
    <path d="M 85.174286 46.26375 
L 99.351429 46.26375 
L 99.351429 40.58175 
L 85.174286 40.58175 
z
" clip-path="url(#p201c8ecc4b)" style="fill: #aaff00"/>
   </g>
   <g id="patch_17">
    <path d="M 99.351429 46.26375 
L 113.528571 46.26375 
L 113.528571 40.58175 
L 99.351429 40.58175 
z
" clip-path="url(#p201c8ecc4b)" style="fill: #ffaa00"/>
   </g>
   <g id="patch_18">
    <path d="M 113.528571 46.26375 
L 127.705714 46.26375 
L 127.705714 40.58175 
L 113.528571 40.58175 
z
" clip-path="url(#p201c8ecc4b)" style="fill: #ff5500"/>
   </g>
   <g id="patch_19">
    <path d="M 127.705714 46.26375 
L 141.882857 46.26375 
L 141.882857 40.58175 
L 127.705714 40.58175 
z
" clip-path="url(#p201c8ecc4b)" style="fill: #ff0000"/>
   </g>
   <g id="line2d_7">
    <path d="M 114.946286 140.01675 
L 129.123429 143.568 
" clip-path="url(#p201c8ecc4b)" style="fill: none; stroke: #00aa44; stroke-width: 2.8; stroke-linecap: round"/>
   </g>
   <g id="line2d_8">
    <path d="M 129.123429 143.568 
L 144.718286 137.886 
" clip-path="url(#p201c8ecc4b)" style="fill: none; stroke: #00aa44; stroke-width: 2.8; stroke-linecap: round"/>
   </g>
   <g id="line2d_9">
    <path d="M 144.718286 137.886 
L 144.718286 152.091 
" clip-path="url(#p201c8ecc4b)" style="fill: none; stroke: #00aa44; stroke-width: 2.8; stroke-linecap: round"/>
   </g>
   <g id="line2d_10">
    <path d="M 144.718286 152.091 
L 156.06 137.886 
" clip-path="url(#p201c8ecc4b)" style="fill: none; stroke: #00aa44; stroke-width: 1.8; stroke-linecap: round"/>
   </g>
   <g id="line2d_11">
    <path d="M 156.06 137.886 
L 170.237143 143.568 
" clip-path="url(#p201c8ecc4b)" style="fill: none; stroke: #00aa44; stroke-width: 2.8; stroke-linecap: round"/>
   </g>
   <g id="line2d_12">
    <path d="M 170.237143 143.568 
L 184.414286 137.886 
" clip-path="url(#p201c8ecc4b)" style="fill: none; stroke: #00aa44; stroke-width: 2.8; stroke-linecap: round"/>
   </g>
   <g id="line2d_13">
    <path d="M 184.414286 137.886 
L 184.414286 154.22175 
" clip-path="url(#p201c8ecc4b)" style="fill: none; stroke: #00aa44; stroke-width: 2.8; stroke-linecap: round"/>
   </g>
   <g id="PathCollection_1">
    <defs>
     <path id="m4a844a7844" d="M 0 1.581139 
C 0.419323 1.581139 0.821528 1.41454 1.118034 1.118034 
C 1.41454 0.821528 1.581139 0.419323 1.581139 0 
C 1.581139 -0.419323 1.41454 -0.821528 1.118034 -1.118034 
C 0.821528 -1.41454 0.419323 -1.581139 0 -1.581139 
C -0.419323 -1.581139 -0.821528 -1.41454 -1.118034 -1.118034 
C -1.41454 -0.821528 -1.581139 -0.419323 -1.581139 0 
C -1.581139 0.419323 -1.41454 0.821528 -1.118034 1.118034 
C -0.821528 1.41454 -0.419323 1.581139 0 1.581139 
z
" style="stroke: #ffffff; stroke-width: 0.3"/>
    </defs>
    <g clip-path="url(#p201c8ecc4b)">
     <use xlink:href="#m4a844a7844" x="92.262857" y="117.28875" style="fill: #888888; stroke: #ffffff; stroke-width: 0.3"/>
    </g>
   </g>
   <g id="PathCollection_2">
    <g clip-path="url(#p201c8ecc4b)">
     <use xlink:href="#m4a844a7844" x="102.895714" y="164.8755" style="fill: #888888; stroke: #ffffff; stroke-width: 0.3"/>
    </g>
   </g>
   <g id="PathCollection_3">
    <g clip-path="url(#p201c8ecc4b)">
     <use xlink:href="#m4a844a7844" x="117.072857" y="112.317" style="fill: #888888; stroke: #ffffff; stroke-width: 0.3"/>
    </g>
   </g>
   <g id="PathCollection_4">
    <g clip-path="url(#p201c8ecc4b)">
     <use xlink:href="#m4a844a7844" x="168.819429" y="115.158" style="fill: #888888; stroke: #ffffff; stroke-width: 0.3"/>
    </g>
   </g>
   <g id="PathCollection_5">
    <g clip-path="url(#p201c8ecc4b)">
     <use xlink:href="#m4a844a7844" x="187.958571" y="163.455" style="fill: #888888; stroke: #ffffff; stroke-width: 0.3"/>
    </g>
   </g>
   <g id="PathCollection_6">
    <g clip-path="url(#p201c8ecc4b)">
     <use xlink:href="#m4a844a7844" x="170.237143" y="174.10875" style="fill: #888888; stroke: #ffffff; stroke-width: 0.3"/>
    </g>
   </g>
   <g id="legend_1">
    <g id="patch_20">
     <path d="M 183.406286 243.444 
L 250.522286 243.444 
Q 251.482286 243.444 251.482286 242.484 
L 251.482286 222.36525 
Q 251.482286 221.40525 250.522286 221.40525 
L 183.406286 221.40525 
Q 182.446286 221.40525 182.446286 222.36525 
L 182.446286 242.484 
Q 182.446286 243.444 183.406286 243.444 
z
" style="fill: #ffffff; opacity: 0.9; stroke: #dddddd; stroke-linejoin: miter"/>
    </g>
    <g id="patch_21">
     <path d="M 184.366286 226.8195 
L 193.966286 226.8195 
L 193.966286 223.4595 
L 184.366286 223.4595 
z
" style="fill: #00aa44"/>
    </g>
    <g id="text_18">
     <text style="font-size: 4.8px; font-family: 'Arial'; text-anchor: start" x="197.806286" y="226.8195" transform="rotate(-0 197.806286 226.8195)">Ala-Ile (ligand, sticks)</text>
    </g>
    <g id="patch_22">
     <path d="M 184.366286 233.6655 
L 193.966286 233.6655 
L 193.966286 230.3055 
L 184.366286 230.3055 
z
" style="fill: #888888; opacity: 0.7"/>
    </g>
    <g id="text_19">
     <text style="font-size: 4.8px; font-family: 'Arial'; text-anchor: start" x="197.806286" y="233.6655" transform="rotate(-0 197.806286 233.6655)">5 Å contact residues</text>
    </g>
    <g id="patch_23">
     <path d="M 184.366286 240.51375 
L 193.966286 240.51375 
L 193.966286 237.15375 
L 184.366286 237.15375 
z
" style="fill: #56b4e9; opacity: 0.35"/>
    </g>
    <g id="text_20">
     <text style="font-size: 4.8px; font-family: 'Arial'; text-anchor: start" x="197.806286" y="240.51375" transform="rotate(-0 197.806286 240.51375)">Binding pocket (surface)</text>
    </g>
   </g>
   <g id="PathCollection_7">
    <defs>
     <path id="m351815bfb9" d="M 0 1.870829 
C 0.49615 1.870829 0.972045 1.673706 1.322876 1.322876 
C 1.673706 0.972045 1.870829 0.49615 1.870829 0 
C 1.870829 -0.49615 1.673706 -0.972045 1.322876 -1.322876 
C 0.972045 -1.673706 0.49615 -1.870829 0 -1.870829 
C -0.49615 -1.870829 -0.972045 -1.673706 -1.322876 -1.322876 
C -1.673706 -0.972045 -1.870829 -0.49615 -1.870829 0 
C -1.870829 0.49615 -1.673706 0.972045 -1.322876 1.322876 
C -0.972045 1.673706 -0.49615 1.870829 0 1.870829 
z
" style="stroke: #ffffff; stroke-width: 0.4"/>
    </defs>
    <g clip-path="url(#p201c8ecc4b)">
     <use xlink:href="#m351815bfb9" x="114.946286" y="140.01675" style="fill: #00aa44; stroke: #ffffff; stroke-width: 0.4"/>
    </g>
   </g>
   <g id="PathCollection_8">
    <g clip-path="url(#p201c8ecc4b)">
     <use xlink:href="#m351815bfb9" x="129.123429" y="143.568" style="fill: #00aa44; stroke: #ffffff; stroke-width: 0.4"/>
    </g>
   </g>
   <g id="PathCollection_9">
    <g clip-path="url(#p201c8ecc4b)">
     <use xlink:href="#m351815bfb9" x="144.718286" y="137.886" style="fill: #00aa44; stroke: #ffffff; stroke-width: 0.4"/>
    </g>
   </g>
   <g id="PathCollection_10">
    <g clip-path="url(#p201c8ecc4b)">
     <use xlink:href="#m351815bfb9" x="144.718286" y="152.091" style="fill: #00aa44; stroke: #ffffff; stroke-width: 0.4"/>
    </g>
   </g>
   <g id="PathCollection_11">
    <g clip-path="url(#p201c8ecc4b)">
     <use xlink:href="#m351815bfb9" x="156.06" y="137.886" style="fill: #00aa44; stroke: #ffffff; stroke-width: 0.4"/>
    </g>
   </g>
   <g id="PathCollection_12">
    <g clip-path="url(#p201c8ecc4b)">
     <use xlink:href="#m351815bfb9" x="170.237143" y="143.568" style="fill: #00aa44; stroke: #ffffff; stroke-width: 0.4"/>
    </g>
   </g>
   <g id="PathCollection_13">
    <g clip-path="url(#p201c8ecc4b)">
     <use xlink:href="#m351815bfb9" x="184.414286" y="137.886" style="fill: #00aa44; stroke: #ffffff; stroke-width: 0.4"/>
    </g>
   </g>
   <g id="PathCollection_14">
    <g clip-path="url(#p201c8ecc4b)">
     <use xlink:href="#m351815bfb9" x="184.414286" y="154.22175" style="fill: #00aa44; stroke: #ffffff; stroke-width: 0.4"/>
    </g>
   </g>
   <g id="patch_24">
    <path d="M 10.744286 292.01025 
L 251.755714 292.01025 
Q 256.008857 292.01025 256.008857 287.74875 
L 256.008857 248.685 
Q 256.008857 244.4235 251.755714 244.4235 
L 10.744286 244.4235 
Q 6.491143 244.4235 6.491143 248.685 
L 6.491143 287.74875 
Q 6.491143 292.01025 10.744286 292.01025 
z
" clip-path="url(#p201c8ecc4b)" style="fill: #ffffff; stroke: #cccccc; stroke-width: 0.7; stroke-linejoin: miter"/>
   </g>
   <g id="text_21">
    <text style="font-size: 5px; font-family: 'Arial'; fill: #333333" transform="translate(95.697656 263.306906)">MCP (NA23_RS01195) × Ala-Ile</text>
    <text style="font-size: 5px; font-family: 'Arial'; fill: #333333" transform="translate(53.86875 268.727062)">Vina affinity: −5.61 kcal/mol  |  CNN pose: 0.900  |  CNN affinity: 4.416</text>
    <text style="font-size: 5px; font-family: 'Arial'; fill: #333333" transform="translate(65.003516 275.004094)">5 Å contacts: Arg64, Thr67, Asn71, Trp130, Leu133, Ser137</text>
   </g>
  </g>
 </g>
 <defs>
  <clipPath id="p201c8ecc4b">
   <rect x="7.2" y="7.2" width="248.1" height="284.1"/>
  </clipPath>
 </defs>
</svg>
